<?xml version="1.0"?>
<svg version="1.1" xmlns="http://www.w3.org/2000/svg" width="800" height="200" style=""><path fill="#ffffff" d="M15.24,99.28l0-4.08l14.256-0.24l0,4.32l-3.504,1.44l4.128,17.28l6.72-22.656l6.48-0.384l6.432,22.992l4.608-17.232l-3.6-1.44l0-4.08l13.68-0.24l0,4.32l-3.456,1.44l-8.208,28.08l-6.816,0l-6.288-22.8l-1.152,4.56l-5.52,18.24l-6.624,0l-7.776-28.128z M86.06448,128.8l-0.864-3.12s-3.696,3.6-7.776,3.6c-4.656,0-7.488-2.736-7.488-7.536c0-5.664,4.272-7.92,11.568-7.92l3.36,0l0-2.64c0-2.448-1.296-3.504-3.696-3.504c-2.448,0-4.224,0.72-4.224,0.72l-0.72,3.024l-4.32,0l-0.336-7.104s5.808-1.92,10.416-1.92c7.296,0,10.08,2.544,10.08,9.504l0,11.856l3.6,0.864l0,3.84z M84.86448,117.904l-2.736,0c-3.744,0-5.232,0.96-5.232,3.12c0,1.824,1.008,2.88,2.832,2.88c2.544,0,5.136-2.784,5.136-2.784l0-3.216z M118.92096,122.656l1.728,3.648c-2.352,1.728-5.04,2.976-8.16,2.976c-5.52,0-7.104-3.84-7.104-9.36l0-11.04l-4.464,0l0-4.656l4.464-0.624l0-6.624l7.2-1.296l0,7.92l6.72,0l0,5.28l-6.72,0l0,10.56c0,3.072,0.528,4.32,2.544,4.32c1.296,0,3.168-0.768,3.792-1.104z M149.56944,117.424l-15.936,0c0.288,3.84,2.496,6.096,5.808,6.096c3.984,0,8.064-2.256,8.064-2.256l2.064,3.984s-4.8,4.032-10.944,4.032c-8.256,0-12.48-4.8-12.48-12.96c0-8.4,4.752-13.92,12.816-13.92c7.152,0,10.896,4.416,10.896,11.28c0,1.824-0.288,3.6-0.288,3.744z M133.72944,112.96l8.688,0c0-2.736-1.152-4.8-3.936-4.8c-2.688,0-4.368,1.968-4.752,4.8z M166.63392,102.88l0.432,3.312s3.456-3.792,6.672-3.792c2.64,0,4.464,0.864,4.464,0.864l-0.384,9.216l-4.32,0l-0.72-4.08c-2.784,0-5.184,2.688-5.184,2.688l0,12.672l4.8,1.2l0,3.84l-15.84,0l0-3.84l3.84-1.2l0-15.6l-3.84-1.2l0-3.84z M201.91488,123.28l0-22.56l-3.6-1.44l0-4.08l11.04-0.24l4.56,0c9.6,0,15.264,5.664,15.264,16.464s-6.24,17.376-15.984,17.376l-14.88,0l0-4.08z M209.35488,123.04l3.984,0c4.656,0,7.776-2.736,7.776-11.376c0-8.064-2.736-10.944-7.44-10.944l-4.32,0l0,22.32z M239.57136,94.96c0-2.736,1.968-4.32,4.128-4.32c2.496,0,4.032,1.296,4.032,4.32c0,2.832-2.064,4.368-4.032,4.368c-2.592,0-4.128-1.536-4.128-4.368z M247.63536,123.76l3.36,1.2l0,3.84l-14.4,0l0-3.84l3.84-1.2l0-15.6l-3.84-1.2l0-3.84l11.04-0.24l0,20.88z M261.91584,120.4l0.384,3.12s1.68,0.48,4.032,0.48c2.64,0,3.936-0.816,3.936-2.352c0-3.936-12.816-2.496-12.816-11.04c0-6,4.8-8.208,9.888-8.208c4.32,0,8.928,1.44,8.928,1.44l-0.192,7.2l-4.08,0l-0.72-2.88s-1.392-0.48-3.312-0.48c-2.064,0-3.312,0.864-3.312,2.448c0,3.888,12.816,2.208,12.816,10.512c0,5.52-4.464,8.64-11.04,8.64c-4.56,0-8.832-1.056-8.832-1.056l0-7.824l4.32,0z M301.20432,122.656l1.728,3.648c-2.352,1.728-5.04,2.976-8.16,2.976c-5.52,0-7.104-3.84-7.104-9.36l0-11.04l-4.464,0l0-4.656l4.464-0.624l0-6.624l7.2-1.296l0,7.92l6.72,0l0,5.28l-6.72,0l0,10.56c0,3.072,0.528,4.32,2.544,4.32c1.296,0,3.168-0.768,3.792-1.104z M318.5088,102.88l0.432,3.312s3.456-3.792,6.672-3.792c2.64,0,4.464,0.864,4.464,0.864l-0.384,9.216l-4.32,0l-0.72-4.08c-2.784,0-5.184,2.688-5.184,2.688l0,12.672l4.8,1.2l0,3.84l-15.84,0l0-3.84l3.84-1.2l0-15.6l-3.84-1.2l0-3.84z M338.30928,94.96c0-2.736,1.968-4.32,4.128-4.32c2.496,0,4.032,1.296,4.032,4.32c0,2.832-2.064,4.368-4.032,4.368c-2.592,0-4.128-1.536-4.128-4.368z M346.37328,123.76l3.36,1.2l0,3.84l-14.4,0l0-3.84l3.84-1.2l0-15.6l-3.84-1.2l0-3.84l11.04-0.24l0,20.88z M365.54976,91.6l0,13.344c0.816-0.624,3.216-2.544,6.864-2.544c6.432,0,9.84,4.656,9.84,12.72c0,9.024-4.704,14.256-13.92,14.256c-5.28,0-9.984-1.056-9.984-1.056l0-31.536l-3.6-0.96l0-3.84z M365.54976,110.32l0,12.912s1.104,0.384,3.552,0.384c4.176,0,5.712-3.168,5.712-8.016c0-4.8-1.344-7.44-4.704-7.44c-2.88,0-4.56,2.16-4.56,2.16z M388.23024,106.96l0-3.84l11.04-0.24l0,16.56c0,2.64,0.768,3.84,2.928,3.84c3.12,0,5.424-2.592,5.424-2.592l0-12.528l-3.84-1.2l0-3.84l11.04-0.24l0,20.88l3.84,0.96l0,3.744l-10.128,0.336l-0.48-3.36s-3.84,3.84-8.4,3.84c-4.8,0-7.584-3.216-7.584-8.592l0-12.528z M441.67872,122.656l1.728,3.648c-2.352,1.728-5.04,2.976-8.16,2.976c-5.52,0-7.104-3.84-7.104-9.36l0-11.04l-4.464,0l0-4.656l4.464-0.624l0-6.624l7.2-1.296l0,7.92l6.72,0l0,5.28l-6.72,0l0,10.56c0,3.072,0.528,4.32,2.544,4.32c1.296,0,3.168-0.768,3.792-1.104z M451.8792,94.96c0-2.736,1.968-4.32,4.128-4.32c2.496,0,4.032,1.296,4.032,4.32c0,2.832-2.064,4.368-4.032,4.368c-2.592,0-4.128-1.536-4.128-4.368z M459.9432,123.76l3.36,1.2l0,3.84l-14.4,0l0-3.84l3.84-1.2l0-15.6l-3.84-1.2l0-3.84l11.04-0.24l0,20.88z M482.71968,102.4c7.776,0,12.096,4.704,12.096,12.96c0,8.64-5.04,13.92-12.816,13.92c-7.824,0-12.24-4.08-12.24-13.2c0-8.64,5.136-13.68,12.96-13.68z M482.47968,108.16c-3.504,0-5.28,1.92-5.28,7.68c0,5.28,1.536,7.68,5.04,7.68c3.456,0,5.136-2.16,5.136-7.92c0-4.896-1.44-7.44-4.896-7.44z M511.68816,102.88l0.336,3.312s4.56-3.696,8.832-3.696c4.656,0,7.296,3.312,7.296,8.544l0,12.72l3.36,1.2l0,3.84l-13.2,0l0-3.84l2.64-1.2l0-11.424c0-2.208-1.248-3.84-3.264-3.84c-2.976,0-5.136,2.736-5.136,2.736l0,12.528l2.64,1.2l0,3.84l-13.68,0l0-3.84l3.84-1.2l0-15.6l-3.84-1.2l0-3.84z M552.34512,128.8l0-4.08l3.6-1.44l0-22.56l-3.6-1.44l0-4.08l11.52-0.24l12.96,22.176l0-16.416l-3.504-1.44l0-4.08l13.68-0.24l0,4.32l-3.6,1.44l0,28.08l-8.016,0l-12.864-21.744l0,16.224l3.744,1.44l0,4.08l-13.92,0z M616.8816,117.424l-15.936,0c0.288,3.84,2.496,6.096,5.808,6.096c3.984,0,8.064-2.256,8.064-2.256l2.064,3.984s-4.8,4.032-10.944,4.032c-8.256,0-12.48-4.8-12.48-12.96c0-8.4,4.752-13.92,12.816-13.92c7.152,0,10.896,4.416,10.896,11.28c0,1.824-0.288,3.6-0.288,3.744z M601.0416,112.96l8.688,0c0-2.736-1.152-4.8-3.936-4.8c-2.688,0-4.368,1.968-4.752,4.8z M640.90608,122.656l1.728,3.648c-2.352,1.728-5.04,2.976-8.16,2.976c-5.52,0-7.104-3.84-7.104-9.36l0-11.04l-4.464,0l0-4.656l4.464-0.624l0-6.624l7.2-1.296l0,7.92l6.72,0l0,5.28l-6.72,0l0,10.56c0,3.072,0.528,4.32,2.544,4.32c1.296,0,3.168-0.768,3.792-1.104z M678.89856,107.68l-2.928-0.72l0-3.84l12.288-0.24l0,4.08l-2.544,0.576l-6.384,21.264l-7.344,0l-3.792-12.24l-0.864-3.744l-1.2,5.232l-3.504,10.752l-7.296,0l-6.528-21.168l-2.112-0.672l0-3.84l12.576-0.24l0,4.08l-3.024,0.576l3.168,13.488l5.088-17.328l6.336-1.056l5.232,18.384z M706.47504,102.4c7.776,0,12.096,4.704,12.096,12.96c0,8.64-5.04,13.92-12.816,13.92c-7.824,0-12.24-4.08-12.24-13.2c0-8.64,5.136-13.68,12.96-13.68z M706.23504,108.16c-3.504,0-5.28,1.92-5.28,7.68c0,5.28,1.536,7.68,5.04,7.68c3.456,0,5.136-2.16,5.136-7.92c0-4.896-1.44-7.44-4.896-7.44z M735.34752,102.88l0.432,3.312s3.456-3.792,6.672-3.792c2.64,0,4.464,0.864,4.464,0.864l-0.384,9.216l-4.32,0l-0.72-4.08c-2.784,0-5.184,2.688-5.184,2.688l0,12.672l4.8,1.2l0,3.84l-15.84,0l0-3.84l3.84-1.2l0-15.6l-3.84-1.2l0-3.84z M762.492,112.528l3.168,0l3.264-4.896l-2.112-0.672l0-3.84l12.384-0.24l0,4.08l-3.36,0.624l-4.464,6.288l5.376,9.936l3.648,1.152l0,3.84l-8.88,0l-5.952-11.712l-3.072,0l0,6.672l2.64,1.2l0,3.84l-13.68,0l0-3.84l3.84-1.2l0-26.976l-3.84-0.96l0-3.84l11.04-0.384l0,20.928z"/><path fill="#" d=""/></svg>
